<?xml version="1.0" encoding="UTF-8" standalone="no"?>
<svg
   xmlns:dc="http://purl.org/dc/elements/1.1/"
   xmlns:cc="http://creativecommons.org/ns#"
   xmlns:rdf="http://www.w3.org/1999/02/22-rdf-syntax-ns#"
   xmlns:svg="http://www.w3.org/2000/svg"
   xmlns="http://www.w3.org/2000/svg"
   xmlns:xlink="http://www.w3.org/1999/xlink"
   xmlns:sodipodi="http://sodipodi.sourceforge.net/DTD/sodipodi-0.dtd"
   xmlns:inkscape="http://www.inkscape.org/namespaces/inkscape"
   width="1075"
   height="200"
   viewBox="-100 -100 1075 200"
   id="svg2"
   version="1.1"
   inkscape:version="0.91 r13725"
   sodipodi:docname="colemass.svg">
  <metadata
     id="metadata21">
    <rdf:RDF>
      <cc:Work
         rdf:about="">
        <dc:format>image/svg+xml</dc:format>
        <dc:type
           rdf:resource="http://purl.org/dc/dcmitype/StillImage" />
        <dc:title></dc:title>
      </cc:Work>
    </rdf:RDF>
  </metadata>
  <defs
     id="defs19" />
  <sodipodi:namedview
     pagecolor="#ffffff"
     bordercolor="#666666"
     borderopacity="1"
     objecttolerance="10"
     gridtolerance="10"
     guidetolerance="10"
     inkscape:pageopacity="0"
     inkscape:pageshadow="2"
     inkscape:window-width="1366"
     inkscape:window-height="705"
     id="namedview17"
     showgrid="false"
     inkscape:zoom="0.49497475"
     inkscape:cx="473.53505"
     inkscape:cy="-13.877314"
     inkscape:window-x="-8"
     inkscape:window-y="-8"
     inkscape:window-maximized="1"
     inkscape:current-layer="svg2" />
  <rect
     x="-100"
     y="-100"
     width="1075"
     height="200"
     id="background"
     style="fill:#ffffff" />
  <g
     style="fill:none;stroke:#000000;stroke-width:30;stroke-linecap:round;stroke-linejoin:round;stroke-miterlimit:4"
     id="letters">
    <path
       id="c"
       d="M 0,50 A 50,50 0 1 1 50,0"
       transform="matrix(0.70710678,-0.70710678,0.70710678,0.70710678,0,0)"
       inkscape:connector-curvature="0" />
    <circle
       id="o"
       r="50"
       transform="translate(120,0)"
       cx="0"
       cy="0" />
    <path
       id="l"
       d="m -50,-50 0,62.5 A 37.5,37.5 0 0 0 -12.5,50 L 25,50"
       transform="translate(260,0)"
       inkscape:connector-curvature="0" />
    <path
       id="e"
       d="M 0,50 A 50,50 0 1 1 50,0 L -50,0"
       transform="matrix(0.70710678,-0.70710678,0.70710678,0.70710678,360,0)"
       inkscape:connector-curvature="0" />
    <path
       id="m"
       d="m -75,50 0,-62.5 a 37.5,37.5 0 0 1 75,0 37.5,37.5 0 0 1 75,0 L 75,50 M 0,50 0,-12.5"
       transform="translate(510,0)"
       inkscape:connector-curvature="0" />
    <path
       id="a"
       d="M 50,50 50,0 A 50,50 0 0 0 -50,0 50,50 0 0 0 50,0"
       transform="translate(680,0)"
       inkscape:connector-curvature="0" />
    <!-- <path id="s" d="M37.5,-50 h-37.5 a25,25 0,0,0 0,50 h12.5 a25,25 0,0,1 0,50 h-37.5" transform="translate(800)"/> -->
    <!-- <path id="s2" d="M21.45448974,-42.63798302
                a25.13549824,25.13549824 0,1,0 -21.45448974,42.63798302
                a25.13549824,25.13549824 0,1,1 -21.45448974,42.63798302"
      transform="translate(800)"/> -->
    <!-- <path id="s3" d="M37.5,-42.6776 a25,25 0,0,0 -17.6776,-7.3223 h-7.3223 a25,25 0,1,0 0,50 h0 a25,25 0,0,1 0,50 h-7.3223 a25,25 0,0,1 -17.6776,-7.3223 "
      transform="translate(900)"/> -->
    <!-- <path id="s4" d="M35.3553,-35.3553 A50,50 0,0,0 0,-50 a25,25 0,0,0 0,50 h10.3553 a25,25 0,0,1 0,50 a50,50 0,0,1 -35.3553,-14.6446"
      transform="translate(800)"/> -->
    <path
       id="s5"
       d="M 26.5165,-39.0165 A 37.5,37.5 0 0 0 0,-50.0009 a 25,25 0 0 0 0,50 l 1.5165,0 a 25,25 0 0 1 0,50 A 37.5,37.5 0 0 1 -25,39.0147"
       transform="translate(800,0)"
       inkscape:connector-curvature="0" />
    <use
       xlink:href="#s5"
       x="95"
       id="use15"
       y="0"
       width="100%"
       height="100%" />
  </g>
</svg>
